<?xml version="1.0" encoding="UTF-8" standalone="no"?>
<svg
   xmlns:dc="http://purl.org/dc/elements/1.1/"
   xmlns:cc="http://creativecommons.org/ns#"
   xmlns:rdf="http://www.w3.org/1999/02/22-rdf-syntax-ns#"
   xmlns:svg="http://www.w3.org/2000/svg"
   xmlns="http://www.w3.org/2000/svg"
   xmlns:sodipodi="http://sodipodi.sourceforge.net/DTD/sodipodi-0.dtd"
   xmlns:inkscape="http://www.inkscape.org/namespaces/inkscape"
   viewBox="0 0 61.677876 61.677876"
   width="64"
   height="64"
   version="1.1"
   id="svg10"
   sodipodi:docname="launcher.svg"
   inkscape:version="0.92.2 (5c3e80d, 2017-08-06)">
  <metadata
     id="metadata16">
    <rdf:RDF>
      <cc:Work
         rdf:about="">
        <dc:format>image/svg+xml</dc:format>
        <dc:type
           rdf:resource="http://purl.org/dc/dcmitype/StillImage" />
        <dc:title></dc:title>
      </cc:Work>
    </rdf:RDF>
  </metadata>
  <defs
     id="defs14" />
  <sodipodi:namedview
     pagecolor="#ffffff"
     bordercolor="#666666"
     borderopacity="1"
     objecttolerance="10"
     gridtolerance="10"
     guidetolerance="10"
     inkscape:pageopacity="0"
     inkscape:pageshadow="2"
     inkscape:window-width="1305"
     inkscape:window-height="866"
     id="namedview12"
     showgrid="false"
     inkscape:zoom="5.2149125"
     inkscape:cx="40.470468"
     inkscape:cy="25.762149"
     inkscape:window-x="854"
     inkscape:window-y="162"
     inkscape:window-maximized="0"
     inkscape:current-layer="svg10"
     showguides="false" />
  <path
     d="m 21.820613,30.095298 c 0,-3.478859 1.633153,-6.575798 4.169538,-8.569641 l -3.882131,-6.2137 c -3.253536,2.33673 -5.701682,5.71886 -6.856681,9.655745 1.808133,1.16378 3.007189,3.197245 3.007189,5.50829 0,2.2291 -1.108256,4.19436 -2.809483,5.377287 1.241799,3.729138 3.661604,6.921532 6.818242,9.137082 l 3.610462,-6.421381 c -2.473847,-1.993196 -4.057136,-5.048771 -4.057136,-8.473682 z"
     id="path2"
     inkscape:connector-curvature="0"
     style="fill:#f2f2f2;stroke-width:0.09126765" />
  <path
     d="m 16.423528,30.475896 c 0,2.59965 -2.111231,4.708639 -4.710253,4.708639 -2.6003008,0 -4.7099449,-2.108924 -4.7099449,-4.708639 0,-2.598354 2.1096441,-4.707279 4.7099449,-4.707279 2.599022,0 4.710253,2.108925 4.710253,4.707279 z m 26.448435,11.386368 c 1.095337,0 2.126552,0.267931 3.032736,0.74371 2.822406,-2.974519 4.64611,-6.899362 4.947743,-11.246695 L 43.537551,31.21769 c -0.563212,5.486169 -5.198044,9.760212 -10.831387,9.760212 -1.559207,0 -3.047249,-0.328003 -4.390041,-0.921146 l -3.636236,6.361695 c 2.424108,1.192789 5.145333,1.862847 8.026163,1.862847 a 18.19781,18.19781 0 0 0 3.637402,-0.36558 c 0.250649,-3.383496 3.07728,-6.053513 6.528511,-6.053513 z"
     id="path4"
     inkscape:connector-curvature="0"
     style="fill:#f2f2f2;stroke-width:0.09126765" />
  <path
     d="m 47.579204,48.408052 c 0,2.599093 -2.106764,4.707202 -4.707241,4.707202 -2.600517,0 -4.708903,-2.108109 -4.708903,-4.707202 0,-2.601158 2.108386,-4.708696 4.708903,-4.708696 2.600477,0 4.707241,2.107538 4.707241,4.708696 z m -1.173675,-30.27297 a 6.5187825,6.5187824 0 0 1 -3.778355,1.201345 c -3.617566,0 -6.546694,-2.92989 -6.546694,-6.545272 0,-0.192025 0.0093,-0.377751 0.02286,-0.564123 -1.099791,-0.210537 -2.236303,-0.318615 -3.397179,-0.318615 -2.907675,0 -5.65749,0.684322 -8.094444,1.896278 l 3.614864,6.365915 a 10.880809,10.880809 0 0 1 4.479587,-0.962334 c 5.583516,0 10.185537,4.205082 10.814366,9.62086 l 7.31486,-0.223291 C 50.512401,24.612122 48.894947,20.984419 46.405529,18.135082 Z"
     id="path6"
     inkscape:connector-curvature="0"
     style="fill:#f2f2f2;stroke-width:0.09126765" />
  <path
     d="m 47.333073,12.791255 c 0,2.600385 -2.102642,4.708673 -4.705821,4.708673 -2.600343,0 -4.708722,-2.108288 -4.708722,-4.708673 -7.7e-5,-2.600583 2.108319,-4.7094983 4.708644,-4.7094983 2.603205,0 4.705899,2.1089153 4.705899,4.7094983 z"
     id="path8"
     inkscape:connector-curvature="0"
     style="fill:#f2f2f2;stroke-width:0.09126765" />
</svg>
